<svg data-v-423bf9ae="" xmlns="http://www.w3.org/2000/svg" viewBox="0 0 356 90" class="iconLeft"><!----><!----><!----><g data-v-423bf9ae="" id="8bcb210e-154e-4dee-b596-554fe5593ac9" fill="black" transform="matrix(4.258339489801132,0,0,4.258339489801132,100.80258994191155,5.205817707580792)"><path d="M5.63 5.84L5.63 5.84Q6.66 5.84 7.51 6.32L7.51 6.32L7.51 6.32Q8.36 6.80 8.86 7.69L8.86 7.69L8.86 7.69Q9.35 8.58 9.35 9.76L9.35 9.76L9.35 9.76Q9.35 10.93 8.86 11.82L8.86 11.82L8.86 11.82Q8.36 12.71 7.51 13.20L7.51 13.20L7.51 13.20Q6.66 13.68 5.63 13.68L5.63 13.68L5.63 13.68Q4.30 13.68 3.51 12.88L3.51 12.88L3.51 16.27L0.85 16.27L0.85 5.96L3.39 5.96L3.39 6.72L3.39 6.72Q4.13 5.84 5.63 5.84L5.63 5.84ZM5.07 11.56L5.07 11.56Q5.77 11.56 6.22 11.08L6.22 11.08L6.22 11.08Q6.66 10.60 6.66 9.76L6.66 9.76L6.66 9.76Q6.66 8.92 6.22 8.43L6.22 8.43L6.22 8.43Q5.77 7.95 5.07 7.95L5.07 7.95L5.07 7.95Q4.37 7.95 3.92 8.43L3.92 8.43L3.92 8.43Q3.47 8.92 3.47 9.76L3.47 9.76L3.47 9.76Q3.47 10.60 3.92 11.08L3.92 11.08L3.92 11.08Q4.37 11.56 5.07 11.56L5.07 11.56ZM16.04 5.96L18.58 5.96L15.30 13.86L15.30 13.86Q14.73 15.26 13.90 15.83L13.90 15.83L13.90 15.83Q13.08 16.39 11.89 16.39L11.89 16.39L11.89 16.39Q11.28 16.39 10.68 16.20L10.68 16.20L10.68 16.20Q10.07 16.02 9.69 15.71L9.69 15.71L10.61 13.85L10.61 13.85Q10.84 14.06 11.15 14.17L11.15 14.17L11.15 14.17Q11.47 14.29 11.79 14.29L11.79 14.29L11.79 14.29Q12.17 14.29 12.41 14.14L12.41 14.14L12.41 14.14Q12.66 13.99 12.82 13.65L12.82 13.65L9.58 5.96L12.31 5.96L14.17 10.60L16.04 5.96ZM26.59 3.75L29.33 3.75L25.13 13.55L22.40 13.55L18.21 3.75L21.21 3.75L23.87 10.14L26.59 3.75ZM33.80 13.68L33.80 13.68Q32.58 13.68 31.60 13.17L31.60 13.17L31.60 13.17Q30.62 12.67 30.07 11.77L30.07 11.77L30.07 11.77Q29.51 10.88 29.51 9.74L29.51 9.74L29.51 9.74Q29.51 8.62 30.07 7.73L30.07 7.73L30.07 7.73Q30.62 6.83 31.59 6.33L31.59 6.33L31.59 6.33Q32.56 5.84 33.80 5.84L33.80 5.84L33.80 5.84Q35.03 5.84 36.01 6.33L36.01 6.33L36.01 6.33Q36.99 6.83 37.53 7.72L37.53 7.72L37.53 7.72Q38.08 8.61 38.08 9.74L38.08 9.74L38.08 9.74Q38.08 10.88 37.53 11.77L37.53 11.77L37.53 11.77Q36.99 12.67 36.01 13.17L36.01 13.17L36.01 13.17Q35.03 13.68 33.80 13.68L33.80 13.68ZM33.80 11.56L33.80 11.56Q34.50 11.56 34.94 11.08L34.94 11.08L34.94 11.08Q35.39 10.60 35.39 9.74L35.39 9.74L35.39 9.74Q35.39 8.90 34.94 8.43L34.94 8.43L34.94 8.43Q34.50 7.95 33.80 7.95L33.80 7.95L33.80 7.95Q33.10 7.95 32.65 8.43L32.65 8.43L32.65 8.43Q32.20 8.90 32.20 9.74L32.20 9.74L32.20 9.74Q32.20 10.60 32.65 11.08L32.65 11.08L32.65 11.08Q33.10 11.56 33.80 11.56L33.80 11.56ZM39.31 13.55L39.31 5.96L41.97 5.96L41.97 13.55L39.31 13.55ZM40.64 5.12L40.64 5.12Q39.91 5.12 39.47 4.72L39.47 4.72L39.47 4.72Q39.02 4.31 39.02 3.71L39.02 3.71L39.02 3.71Q39.02 3.11 39.47 2.70L39.47 2.70L39.47 2.70Q39.91 2.30 40.64 2.30L40.64 2.30L40.64 2.30Q41.37 2.30 41.82 2.68L41.82 2.68L41.82 2.68Q42.27 3.07 42.27 3.67L42.27 3.67L42.27 3.67Q42.27 4.30 41.82 4.71L41.82 4.71L41.82 4.71Q41.37 5.12 40.64 5.12L40.64 5.12ZM47.57 13.68L47.57 13.68Q46.31 13.68 45.32 13.17L45.32 13.17L45.32 13.17Q44.32 12.67 43.77 11.77L43.77 11.77L43.77 11.77Q43.22 10.88 43.22 9.74L43.22 9.74L43.22 9.74Q43.22 8.61 43.77 7.72L43.77 7.72L43.77 7.72Q44.32 6.83 45.32 6.33L45.32 6.33L45.32 6.33Q46.31 5.84 47.57 5.84L47.57 5.84L47.57 5.84Q48.86 5.84 49.80 6.39L49.80 6.39L49.80 6.39Q50.74 6.94 51.13 7.92L51.13 7.92L49.07 8.97L49.07 8.97Q48.55 7.95 47.56 7.95L47.56 7.95L47.56 7.95Q46.84 7.95 46.38 8.43L46.38 8.43L46.38 8.43Q45.91 8.90 45.91 9.74L45.91 9.74L45.91 9.74Q45.91 10.60 46.38 11.08L46.38 11.08L46.38 11.08Q46.84 11.56 47.56 11.56L47.56 11.56L47.56 11.56Q48.55 11.56 49.07 10.54L49.07 10.54L51.13 11.59L51.13 11.59Q50.74 12.57 49.80 13.13L49.80 13.13L49.80 13.13Q48.86 13.68 47.57 13.68L47.57 13.68ZM59.89 9.77L59.89 9.77Q59.89 9.80 59.85 10.43L59.85 10.43L54.33 10.43L54.33 10.43Q54.50 11.02 54.98 11.33L54.98 11.33L54.98 11.33Q55.47 11.65 56.20 11.65L56.20 11.65L56.20 11.65Q56.74 11.65 57.14 11.49L57.14 11.49L57.14 11.49Q57.54 11.34 57.95 10.99L57.95 10.99L59.35 12.45L59.35 12.45Q58.24 13.68 56.11 13.68L56.11 13.68L56.11 13.68Q54.78 13.68 53.77 13.17L53.77 13.17L53.77 13.17Q52.77 12.67 52.21 11.77L52.21 11.77L52.21 11.77Q51.66 10.88 51.66 9.74L51.66 9.74L51.66 9.74Q51.66 8.62 52.20 7.73L52.20 7.73L52.20 7.73Q52.74 6.85 53.69 6.34L53.69 6.34L53.69 6.34Q54.64 5.84 55.83 5.84L55.83 5.84L55.83 5.84Q56.97 5.84 57.89 6.31L57.89 6.31L57.89 6.31Q58.81 6.78 59.35 7.66L59.35 7.66L59.35 7.66Q59.89 8.55 59.89 9.77L59.89 9.77ZM55.85 7.73L55.85 7.73Q55.23 7.73 54.82 8.08L54.82 8.08L54.82 8.08Q54.40 8.43 54.29 9.03L54.29 9.03L57.40 9.03L57.40 9.03Q57.29 8.43 56.88 8.08L56.88 8.08L56.88 8.08Q56.46 7.73 55.85 7.73L55.85 7.73Z"></path></g><!----><g data-v-423bf9ae="" id="f174efb8-5c2c-4702-ba99-971e9f5cdbaf" transform="matrix(2.0253394056705134,0,0,2.0253394056705134,-7.47547998791898,-4.851472939338059)" stroke="none" fill="black"><g clip-rule="evenodd"><path d="M24.306 3.039l2.839 21.868.015.114.041.109c.729 1.934.387 2.41.346 2.457-.144.166-.701.273-1.799.029-1.683-.252-2.982.025-3.932.811-1.043.861-1.616 2.311-1.703 4.309l.019-.154-.47 2.344s-5.427 1.556-13.002-2.545l-2.501-1.768.977 2.904c1.89 5.619 5.93 7.938 12.025 6.906.65-.109-3.305 4.338-7.604 4.807l.217 1.988c5.073-.553 8.47-3.203 10.096-7.877l.619-1.781-1.822.486c-4.961 1.326-8.744.023-10.78-3.004 2.679 1.637 7.211 3.059 12.849 1.732l.625-.146.126-.631.606-3.021.016-.076.003-.078c.062-1.408.391-2.367.979-2.854.495-.408 1.268-.539 2.296-.387 1.713.383 2.937.164 3.672-.685.798-.919.803-2.382.015-4.472l.057.223-2.842-21.866-1.983.258z"></path><path d="M15.9 10.537c2.071.496 3.702.309 4.847-.557 1.101-.83 1.699-2.24 1.781-4.19l-1.998-.084c-.056 1.324-.388 2.226-.988 2.68-.646.487-1.714.557-3.176.206l-.466 1.945z"></path><g><path d="M33.519 26.729c5.327 4.763 6.327 9.834 3.058 15.505l1.732 1c3.71-6.436 2.514-12.658-3.457-17.995l-1.333 1.49z"></path><path d="M36.497 21.83c7.348 5.125 9.561 15.373 4.935 22.846l1.7 1.053c5.177-8.359 2.714-19.816-5.49-25.54l-1.145 1.641zM30.14 30.279c3.731 3.188 4.236 5.609 2.079 9.967l1.792.887c2.582-5.213 1.885-8.566-2.572-12.373l-1.299 1.519z"></path></g></g></g><!----></svg>