<svg data-v-423bf9ae="" xmlns="http://www.w3.org/2000/svg" viewBox="0 0 56.28145406447239 60" class="icon"><!----><!----><!----><!----><g data-v-423bf9ae="" id="bab49579-1c17-4daa-86e1-c94b242da25a" transform="matrix(1.350226270447009,0,0,1.350226270447009,-5.615594802737007,-3.7549845942429556)" stroke="none" fill="black"><g clip-rule="evenodd"><path d="M24.306 3.039l2.839 21.868.015.114.041.109c.729 1.934.387 2.41.346 2.457-.144.166-.701.273-1.799.029-1.683-.252-2.982.025-3.932.811-1.043.861-1.616 2.311-1.703 4.309l.019-.154-.47 2.344s-5.427 1.556-13.002-2.545l-2.501-1.768.977 2.904c1.89 5.619 5.93 7.938 12.025 6.906.65-.109-3.305 4.338-7.604 4.807l.217 1.988c5.073-.553 8.47-3.203 10.096-7.877l.619-1.781-1.822.486c-4.961 1.326-8.744.023-10.78-3.004 2.679 1.637 7.211 3.059 12.849 1.732l.625-.146.126-.631.606-3.021.016-.076.003-.078c.062-1.408.391-2.367.979-2.854.495-.408 1.268-.539 2.296-.387 1.713.383 2.937.164 3.672-.685.798-.919.803-2.382.015-4.472l.057.223-2.842-21.866-1.983.258z"></path><path d="M15.9 10.537c2.071.496 3.702.309 4.847-.557 1.101-.83 1.699-2.24 1.781-4.19l-1.998-.084c-.056 1.324-.388 2.226-.988 2.68-.646.487-1.714.557-3.176.206l-.466 1.945z"></path><g><path d="M33.519 26.729c5.327 4.763 6.327 9.834 3.058 15.505l1.732 1c3.71-6.436 2.514-12.658-3.457-17.995l-1.333 1.49z"></path><path d="M36.497 21.83c7.348 5.125 9.561 15.373 4.935 22.846l1.7 1.053c5.177-8.359 2.714-19.816-5.49-25.54l-1.145 1.641zM30.14 30.279c3.731 3.188 4.236 5.609 2.079 9.967l1.792.887c2.582-5.213 1.885-8.566-2.572-12.373l-1.299 1.519z"></path></g></g></g><!----></svg>